<svg xmlns="http://www.w3.org/2000/svg" viewBox="0 0 128 128" shape-rendering="crispEdges" role="img" aria-label="CHALK SPRITE"><defs><filter id="g"><feGaussianBlur stdDeviation="2"/><feMerge><feMergeNode/><feMergeNode in="SourceGraphic"/></feMerge></filter><pattern id="scan" width="4" height="4" patternUnits="userSpaceOnUse"><rect width="4" height="2" fill="#fff" opacity=".045"/></pattern></defs><rect width="128" height="128" fill="#030208"/><rect width="128" height="128" fill="url(#scan)"/><g filter="url(#g)"><rect x="8" y="112" width="112" height="8" fill="#00f5ff" opacity="0.16"/><rect x="16" y="16" width="96" height="96" fill="#b44dff" opacity="0.06"/><rect x="36" y="42" width="56" height="58" fill="#04151a"/><rect x="40" y="46" width="48" height="50" fill="#00f5ff" opacity="0.82"/><rect x="48" y="56" width="32" height="18" fill="#b44dff" opacity="0.38"/><rect x="24" y="70" width="12" height="28" fill="#00f5ff"/><rect x="92" y="70" width="12" height="28" fill="#00f5ff"/><rect x="18" y="92" width="14" height="10" fill="#f0e6ff"/><rect x="96" y="92" width="14" height="10" fill="#f0e6ff"/><rect x="46" y="100" width="14" height="16" fill="#b44dff"/><rect x="68" y="100" width="14" height="16" fill="#b44dff"/><rect x="52" y="68" width="10" height="10" fill="#f0e6ff"/><rect x="66" y="68" width="10" height="10" fill="#f0e6ff"/><rect x="55" y="71" width="4" height="4" fill="#05050c"/><rect x="69" y="71" width="4" height="4" fill="#05050c"/><rect x="58" y="92" width="12" height="12" fill="#05050c"/><rect x="20" y="20" width="12" height="12" fill="#00f5ff" opacity="0.55"/><rect x="96" y="22" width="8" height="8" fill="#b44dff" opacity="0.55"/><rect x="104" y="90" width="10" height="10" fill="#f0e6ff" opacity="0.45"/></g><metadata>swolecrypt-generated:chalk_sprite</metadata></svg>