<svg xmlns="http://www.w3.org/2000/svg" viewBox="0 0 128 128" shape-rendering="crispEdges" role="img" aria-label="JUMP ROPE OF BAD PORTALS"><defs><filter id="g"><feGaussianBlur stdDeviation="2"/><feMerge><feMergeNode/><feMergeNode in="SourceGraphic"/></feMerge></filter><pattern id="scan" width="4" height="4" patternUnits="userSpaceOnUse"><rect width="4" height="2" fill="#fff" opacity=".045"/></pattern></defs><rect width="128" height="128" fill="#04030a"/><rect width="128" height="128" fill="url(#scan)"/><g filter="url(#g)"><rect x="18" y="18" width="92" height="92" fill="#fede5d" opacity="0.18"/><rect x="26" y="26" width="76" height="76" fill="#1a1504"/><rect x="30" y="30" width="68" height="68" fill="#fede5d" opacity="0.2"/><rect x="94" y="59" width="8" height="6" fill="#fede5d" opacity="0.75"/><rect x="95" y="41" width="12" height="6" fill="#ff8b39" opacity="0.75"/><rect x="95" y="32" width="16" height="6" fill="#ff2aa3" opacity="0.75"/><rect x="95" y="28" width="8" height="6" fill="#fede5d" opacity="0.75"/><rect x="59" y="26" width="12" height="6" fill="#ff8b39" opacity="0.75"/><rect x="41" y="25" width="16" height="6" fill="#ff2aa3" opacity="0.75"/><rect x="32" y="24" width="8" height="6" fill="#fede5d" opacity="0.75"/><rect x="28" y="24" width="12" height="6" fill="#ff8b39" opacity="0.75"/><rect x="26" y="60" width="16" height="6" fill="#ff2aa3" opacity="0.75"/><rect x="25" y="78" width="8" height="6" fill="#fede5d" opacity="0.75"/><rect x="16" y="16" width="8" height="8" fill="#ff2aa3"/><rect x="104" y="16" width="8" height="8" fill="#ff8b39"/><rect x="16" y="104" width="8" height="8" fill="#ff8b39"/><rect x="104" y="104" width="8" height="8" fill="#ff2aa3"/></g><metadata>swolecrypt-generated:jump_rope</metadata></svg>